<?xml version="1.0" standalone="no"?>
<!DOCTYPE svg PUBLIC "-//W3C//DTD SVG 20010904//EN"
 "http://www.w3.org/TR/2001/REC-SVG-20010904/DTD/svg10.dtd">
<svg version="1.0" xmlns="http://www.w3.org/2000/svg"
 width="793.000000pt" height="793.000000pt" viewBox="0 0 793.000000 793.000000"
 preserveAspectRatio="xMidYMid meet">
<metadata>
Created by potrace 1.14, written by Peter Selinger 2001-2017
</metadata>
<g transform="translate(0.000000,793.000000) scale(0.100000,-0.100000)"
fill="#000000" stroke="none">
<path d="M0 3965 l0 -3965 3965 0 3965 0 0 3965 0 3965 -3965 0 -3965 0 0
-3965z m4144 1486 c312 -83 570 -323 674 -626 127 -374 12 -796 -287 -1049
-30 -25 -58 -46 -62 -46 -4 0 -22 27 -40 60 -41 78 -132 176 -203 220 -31 19
-58 42 -60 50 -3 8 -14 59 -26 113 -16 73 -29 107 -49 130 -37 43 -43 71 -25
124 12 36 13 51 4 73 -16 39 -68 90 -94 91 -11 1 -53 3 -92 4 -116 4 -164 28
-179 87 -4 15 -16 30 -26 33 -34 11 -20 20 26 17 49 -4 68 15 48 48 -9 13 -5
23 18 48 37 39 38 55 3 42 -55 -21 -46 -8 26 38 56 36 85 63 113 105 35 54 50
117 27 117 -5 0 -10 -15 -10 -34 0 -29 -28 -74 -31 -50 -1 5 -2 14 -4 19 -1 6
-3 20 -3 33 -1 13 -6 21 -11 18 -5 -3 -7 -15 -4 -26 7 -25 -12 -26 -27 -2 -7
13 -9 4 -4 -35 5 -41 4 -53 -7 -53 -8 0 -21 -15 -29 -33 -18 -38 -50 -49 -50
-18 0 12 -4 21 -10 21 -5 0 -10 -9 -10 -20 0 -25 -57 -90 -79 -90 -17 0 -85
58 -94 81 -5 12 -7 12 -16 -1 -8 -12 -13 -12 -30 4 -11 10 -23 27 -26 37 -4
11 -13 19 -21 19 -10 0 -14 6 -10 18 2 9 7 33 11 52 5 31 4 33 -8 18 -20 -25
-27 -22 -27 9 0 14 -3 23 -7 19 -8 -8 -9 -12 -11 -56 -2 -22 -3 -23 -18 -8 -9
9 -20 31 -24 49 l-8 34 -1 -39 c-1 -39 4 -47 89 -147 20 -24 57 -51 90 -66 30
-14 50 -27 43 -30 -6 -2 -25 3 -42 11 -36 19 -41 20 -41 4 0 -6 17 -28 38 -48
l38 -38 -7 -73 c-12 -119 -10 -196 7 -264 l16 -65 -46 -56 c-50 -62 -50 -55
-13 -157 12 -35 30 -65 44 -74 35 -23 48 -3 19 28 -62 67 -62 111 -1 168 73
67 121 40 80 -44 -8 -19 -21 -73 -27 -120 l-11 -86 -41 -21 c-66 -34 -170
-147 -214 -233 l-38 -76 -42 30 c-239 174 -397 513 -379 815 7 116 41 262 84
357 128 282 400 497 701 554 110 21 322 14 426 -14z m-219 -1110 c8 -27 72
-81 95 -81 35 0 67 -45 84 -117 8 -37 14 -69 12 -70 -2 -2 -29 3 -62 12 -32 8
-78 15 -102 15 -40 0 -43 2 -36 23 3 12 15 39 25 59 21 41 25 83 9 93 -16 10
-52 85 -41 85 5 0 12 -9 16 -19z m-92 -56 c22 -19 44 -35 48 -35 20 0 19 -45
-1 -95 -20 -49 -24 -53 -61 -59 -22 -4 -58 -13 -80 -20 -50 -17 -56 -9 -40 65
12 56 70 179 84 179 5 0 27 -16 50 -35z m2022 -804 c3 -6 -1 -13 -9 -18 -8 -4
-16 -26 -18 -47 -4 -57 -28 -60 -28 -3 0 37 -4 46 -21 50 -12 3 -18 10 -14 16
8 13 82 15 90 2z m74 -22 l19 -31 16 31 c27 52 46 40 46 -29 0 -33 -4 -60 -10
-60 -5 0 -10 14 -10 30 0 17 -4 30 -10 30 -5 0 -10 -6 -10 -14 0 -7 -6 -19
-14 -25 -12 -10 -18 -7 -30 16 -9 17 -16 22 -17 13 -1 -8 -2 -21 -3 -29 0 -8
-7 -16 -13 -18 -9 -3 -13 11 -13 50 0 76 17 89 49 36z m-3715 -292 c27 -76 53
-134 57 -130 4 4 26 68 48 141 l42 132 63 0 63 0 21 -57 c11 -32 30 -92 42
-133 12 -41 26 -79 30 -83 6 -7 24 38 101 251 8 20 15 22 75 22 36 0 64 -4 62
-8 -1 -5 -43 -120 -93 -255 l-90 -247 -47 0 -47 0 -50 158 c-28 87 -51 163
-51 170 0 7 -4 12 -9 12 -4 0 -34 -77 -66 -170 l-57 -171 -47 3 -46 3 -86 235
c-48 129 -90 243 -94 253 -7 16 -2 18 61 15 l68 -3 50 -138z m796 -112 l0
-255 -60 0 -59 0 -3 255 -3 255 63 0 62 0 0 -255z m250 50 l0 -205 115 0 115
0 0 -50 0 -50 -175 0 -175 0 0 255 0 255 60 0 60 0 0 -205z m640 188 c62 -20
122 -73 146 -128 26 -60 23 -169 -5 -228 -52 -107 -131 -139 -332 -135 l-134
3 -3 240 c-1 132 0 245 2 252 8 21 260 18 326 -4z m390 -188 l0 -205 115 0
115 0 0 -50 0 -50 -175 0 -175 0 0 255 0 255 60 0 60 0 0 -205z m440 -50 l0
-255 -62 0 -63 0 3 255 3 255 59 0 60 0 0 -255z m500 205 l0 -50 -125 0 -125
0 0 -55 0 -55 120 0 120 0 0 -50 0 -49 -117 -3 -118 -3 -3 -97 -3 -98 -59 0
-60 0 0 255 0 255 185 0 185 0 0 -50z m490 0 l0 -50 -136 0 -135 0 3 -52 3
-53 118 -3 117 -3 0 -50 0 -51 -117 3 -118 4 -3 -52 -3 -53 140 0 141 0 0 -50
0 -50 -200 0 -200 0 0 255 0 255 195 0 195 0 0 -50z"/>
<path d="M3700 3056 l0 -156 60 0 c112 0 170 44 178 134 9 116 -40 168 -165
174 l-73 4 0 -156z"/>
</g>
</svg>
